<?xml version="1.0" encoding="UTF-8"?>
<svg id="Ebene_1" data-name="Ebene 1" xmlns="http://www.w3.org/2000/svg" version="1.1" viewBox="0 0 850.4 425.2">
  <defs>
    <style>
      .cls-1 {
        fill: #331e4b;
      }

      .cls-1, .cls-2 {
        stroke-width: 0px;
      }

      .cls-2 {
        fill: #913b8e;
      }
    </style>
  </defs>
  <g>
    <polygon class="cls-2" points="295.3 214.7 324.3 185.8 295.3 185.8 295.3 214.7"/>
    <path class="cls-1" d="M322.6,45.2h-132.7c-2.1,0-3.9,1.8-3.9,3.9v164c0,2.1,1.8,3.9,3.9,3.9h97.6v-35.1c0-2.1,1.8-3.9,3.9-3.9h35.1V49.1c0-2.1-1.8-3.9-3.9-3.9ZM249.8,193.1c-1.3,0-2.4,0-3.3.1-.9,0-1.8,0-2.6,0h-5.1c-4.3,0-7.9-.4-10.8-1.2-2.9-.8-5.3-2-7.2-3.6-1.9-1.6-3.3-3.5-4.2-5.9-1-2.3-1.6-5-1.9-8.1h-6.7l1.3-6.8h5.3v-8h-6.6l1.3-6.8h5.4c.4-2.9,1.1-5.6,2.1-7.9,1-2.3,2.4-4.3,4.2-5.9,1.8-1.6,4.1-2.8,7-3.7,2.8-.8,6.3-1.3,10.4-1.3s4.5,0,6.7,0c2.2,0,4.1,0,5.6.1l-1.6,7.8c-1.5,0-3.1,0-4.8-.1-1.7,0-3.6,0-5.8,0s-4.7.2-6.4.5c-1.7.3-3.1.9-4.2,1.7-1.1.8-2,2-2.6,3.4-.6,1.4-1,3.2-1.3,5.3h22.5l-1.3,6.8h-22v8h23.3l-1.3,6.8h-21.2c.2,2.1.7,3.8,1.3,5.2.7,1.4,1.6,2.5,2.8,3.4,1.2.9,2.7,1.5,4.6,1.8,1.8.3,4,.5,6.6.5s3.7,0,6,0c2.2,0,4.4,0,6.4-.1l-1.6,7.8ZM273.7,111.1h-62.5c-2.1,0-3.9-1.8-3.9-3.9s1.8-3.9,3.9-3.9h62.5c2.1,0,3.9,1.8,3.9,3.9s-1.8,3.9-3.9,3.9ZM297.1,95.5h-85.9c-2.1,0-3.9-1.8-3.9-3.9s1.8-3.9,3.9-3.9h85.9c2.1,0,3.9,1.8,3.9,3.9s-1.8,3.9-3.9,3.9ZM297.1,79.9h-85.9c-2.1,0-3.9-1.8-3.9-3.9s1.8-3.9,3.9-3.9h85.9c2.1,0,3.9,1.8,3.9,3.9s-1.8,3.9-3.9,3.9Z"/>
  </g>
  <g>
    <path class="cls-1" d="M405.8,183.4l20.1-24h15.5l-23.5,27.6,26.3,30.8h-17.4l-21-25.2v25.2h-13.5v-58.4h13.5v24Z"/>
    <path class="cls-1" d="M484.1,209.3c0,1.6-.2,2.9-.5,4-.3,1.1-.9,2-1.6,2.6-.7.7-1.7,1.1-2.9,1.4-1.2.3-2.7.4-4.3.4h-14.5c-3.1,0-5.6-.3-7.7-.9-2.1-.6-3.7-1.4-5-2.5-1.3-1.1-2.2-2.5-2.7-4.1-.5-1.6-.8-3.4-.8-5.4v-1.7c0-4.5,1.4-7.8,4.1-9.9,2.7-2,6.9-3.1,12.5-3.1s4.9.2,6.6.7c1.7.4,3,1,4.1,1.6v-.9c0-1.1,0-2.1-.3-3-.2-.8-.6-1.5-1.1-2.1-.6-.6-1.4-1-2.5-1.3-1.1-.3-2.5-.4-4.3-.4h-7.3c-1.4,0-2.8,0-4.2,0-1.4,0-2.7,0-3.9.1l1.9-10.1c1.6,0,3.6,0,6-.1,2.4,0,5.2,0,8.4,0,6.8,0,11.9,1.2,15.1,3.6,3.3,2.4,4.9,6.4,4.9,11.9v19.1ZM456.6,204.1c0,1.6.4,2.7,1.3,3.4.9.7,2.5,1.1,4.8,1.1h8.7v-4.8c0-1.7-.5-2.9-1.4-3.7-.9-.8-2.8-1.2-5.7-1.2h-1.1c-2.6,0-4.3.3-5.2,1-.9.7-1.4,1.9-1.4,3.6v.6Z"/>
    <path class="cls-1" d="M512.1,219.1c-3.6,0-6.6-.3-9.1-.8-2.5-.5-4.6-1.4-6.3-2.7-1.6-1.3-2.8-2.9-3.6-5-.8-2.1-1.1-4.6-1.1-7.7v-28h13v27.4c0,1.1,0,2.1.2,3,.2.8.5,1.5,1,2,.5.5,1.2.9,2.1,1.2.9.2,2.2.4,3.8.4s2.8-.1,3.7-.4c.9-.2,1.6-.6,2.1-1.2.5-.5.8-1.2,1-2,.2-.8.2-1.8.2-3v-27.4h13v28c0,3.1-.4,5.6-1.1,7.7-.8,2.1-2,3.7-3.6,5-1.6,1.3-3.7,2.2-6.3,2.7-2.5.5-5.6.8-9.1.8Z"/>
    <path class="cls-1" d="M561.4,166.9c-3.2,0-5.3.6-6.5,1.8-1.2,1.2-1.8,3.2-1.8,6.2h14.4l-2,10.2h-12.5v32.6h-13v-41.2c0-3.7.4-6.8,1.1-9.3s1.9-4.6,3.6-6.1c1.6-1.6,3.8-2.7,6.5-3.4,2.7-.7,6-1.1,9.9-1.1h2.4c.9,0,1.7,0,2.6,0,.8,0,1.7,0,2.4,0,.8,0,1.4,0,1.9,0l-2,10.2c-.8,0-1.9,0-3.3-.1-1.4,0-2.6,0-3.7,0Z"/>
    <path class="cls-1" d="M629.2,209.3c0,1.6-.2,2.9-.5,4-.3,1.1-.9,2-1.6,2.6-.7.7-1.7,1.1-2.9,1.4-1.2.3-2.7.4-4.3.4h-14.5c-3.1,0-5.6-.3-7.7-.9-2.1-.6-3.7-1.4-5-2.5-1.3-1.1-2.2-2.5-2.7-4.1-.5-1.6-.8-3.4-.8-5.4v-1.7c0-4.5,1.4-7.8,4.1-9.9,2.7-2,6.9-3.1,12.5-3.1s4.9.2,6.6.7c1.7.4,3,1,4.1,1.6v-.9c0-1.1,0-2.1-.3-3-.2-.8-.6-1.5-1.1-2.1-.6-.6-1.4-1-2.5-1.3-1.1-.3-2.5-.4-4.3-.4h-7.3c-1.4,0-2.8,0-4.2,0-1.4,0-2.7,0-3.9.1l1.9-10.1c1.6,0,3.6,0,6-.1,2.4,0,5.2,0,8.4,0,6.8,0,11.9,1.2,15.1,3.6,3.3,2.4,4.9,6.4,4.9,11.9v19.1ZM601.8,204.1c0,1.6.4,2.7,1.3,3.4.9.7,2.5,1.1,4.8,1.1h8.7v-4.8c0-1.7-.5-2.9-1.4-3.7-.9-.8-2.8-1.2-5.7-1.2h-1.1c-2.6,0-4.3.3-5.2,1-.9.7-1.4,1.9-1.4,3.6v.6Z"/>
    <path class="cls-1" d="M657.3,219.1c-3.6,0-6.6-.3-9.1-.8-2.5-.5-4.6-1.4-6.3-2.7-1.6-1.3-2.8-2.9-3.6-5-.8-2.1-1.1-4.6-1.1-7.7v-28h13v27.4c0,1.1,0,2.1.2,3,.2.8.5,1.5,1,2,.5.5,1.2.9,2.1,1.2.9.2,2.2.4,3.8.4s2.8-.1,3.7-.4c.9-.2,1.6-.6,2.1-1.2.5-.5.8-1.2,1-2,.2-.8.2-1.8.2-3v-27.4h13v28c0,3.1-.4,5.6-1.1,7.7-.8,2.1-2,3.7-3.6,5-1.6,1.3-3.7,2.2-6.3,2.7-2.5.5-5.6.8-9.1.8Z"/>
    <path class="cls-1" d="M706.6,166.9c-3.2,0-5.3.6-6.5,1.8-1.2,1.2-1.8,3.2-1.8,6.2h14.4l-2,10.2h-12.5v32.6h-13v-41.2c0-3.7.4-6.8,1.1-9.3s1.9-4.6,3.6-6.1c1.6-1.6,3.8-2.7,6.5-3.4,2.7-.7,6-1.1,9.9-1.1h2.4c.9,0,1.7,0,2.6,0,.8,0,1.7,0,2.4,0,.8,0,1.4,0,1.9,0l-2,10.2c-.8,0-1.9,0-3.3-.1-1.4,0-2.6,0-3.7,0Z"/>
  </g>
  <g>
    <path class="cls-1" d="M177.2,271.2c0,7.6-1.6,13.7-4.7,18.2-3.2,4.5-7.8,7.9-13.8,10l23.5,40h-26.4l-19.9-36.5h-16.5v36.5h-23.5v-104h41.9c7,0,13,.6,18,1.8,5,1.2,9,3,12.2,5.6,3.2,2.5,5.5,5.8,7,9.9,1.5,4,2.3,8.9,2.3,14.7v3.9ZM153.6,268.7c0-2.7-.3-5-.9-6.8-.6-1.8-1.5-3.2-2.8-4.2-1.3-1-2.9-1.7-5-2.1-2.1-.4-4.7-.6-7.8-.6h-17.7v28.9h17.7c3.1,0,5.7-.2,7.8-.6,2.1-.4,3.8-1.1,5-2.2,1.3-1.1,2.2-2.5,2.8-4.3.6-1.8.9-4.1.9-6.9v-1.2Z"/>
    <path class="cls-1" d="M209.7,309.1c0,2.5.4,4.6.8,6.1.4,1.6,1.2,2.8,2.3,3.8,1.1,1,2.6,1.6,4.5,2,1.8.3,4.2.5,7,.5h12.9c4.6,0,9.8,0,15.6-.1l-3.4,18.1c-4.9.2-9.4.3-13.6.3h-13.7c-6.9,0-12.7-.7-17.2-2.1-4.6-1.4-8.2-3.6-11-6.4-2.7-2.9-4.7-6.5-5.8-10.8-1.1-4.3-1.7-9.4-1.7-15.3v-8c0-6.1.6-11.5,1.8-16,1.2-4.5,3.3-8.3,6.1-11.3,2.9-3,6.6-5.3,11.2-6.8,4.6-1.5,10.3-2.3,17.2-2.3,12.3,0,21,2.6,26.3,7.7,5.3,5.1,7.9,12.2,7.9,21.4v3.1c0,3.2-.2,5.8-.6,7.9-.4,2-1.1,3.7-2.1,5-1,1.3-2.4,2.1-4,2.6-1.7.5-3.7.7-6.1.7h-34.5ZM222.2,277.8c-2.6,0-4.7.2-6.4.7-1.6.4-2.9,1.2-3.8,2.3-.9,1.1-1.6,2.7-1.9,4.6-.3,1.9-.5,4.5-.5,7.6h25.3c0-3.1-.2-5.6-.5-7.6-.3-1.9-1-3.5-2-4.6-1-1.1-2.3-1.9-3.9-2.3-1.6-.4-3.7-.7-6.4-.7Z"/>
    <path class="cls-1" d="M303.6,262.8h9.1c3.5,0,8,0,13.5.3l-3.5,18.4c-1.7,0-3.2-.2-4.5-.2-1.4,0-2.7,0-4.1-.1-1.4,0-2.8,0-4.3,0h-5.3c-3,0-5.5.2-7.5.6-1.9.4-3.5,1.2-4.6,2.3-1.1,1.2-1.9,2.8-2.3,5-.4,2.1-.7,5-.7,8.5v7.7c0,3.5.2,6.3.7,8.5.4,2.1,1.2,3.8,2.4,5,1.2,1.2,2.7,1.9,4.7,2.3,1.9.4,4.4.6,7.3.6h11.2c3.3,0,6.9,0,10.9-.3l-3.5,18.3c-3.9,0-7.5.2-10.9.2-3.4,0-6.1,0-8.3,0-7.2,0-13.2-.6-18-1.9-4.8-1.3-8.7-3.3-11.7-6-3-2.7-5.1-6.3-6.4-10.7-1.3-4.4-1.9-9.7-1.9-16.1v-7.7c0-6.2.7-11.5,2-15.9,1.3-4.4,3.5-8,6.5-10.7,3-2.8,6.9-4.8,11.7-6.1,4.8-1.3,10.6-1.9,17.5-1.9Z"/>
    <path class="cls-1" d="M338.4,339.4v-108.5h23.2v35.1c1.8-1.5,4.3-2.7,7.3-3.7,3-1,7.1-1.5,12.3-1.5,9.2,0,16.3,2,21.5,6.1,5.2,4,7.8,10.6,7.8,19.6v53h-23.2v-48.2c0-2-.1-3.8-.4-5.3-.3-1.5-.9-2.7-1.8-3.7-.9-1-2.1-1.7-3.7-2.1-1.6-.4-3.7-.7-6.4-.7s-4.8.2-6.6.7c-1.8.5-3.1,1.3-4.2,2.3-1,1.1-1.7,2.5-2.1,4.3-.4,1.8-.6,4-.6,6.6v45.9h-23.2Z"/>
    <path class="cls-1" d="M424.5,339.4v-50c0-5.4.7-9.9,2-13.5,1.4-3.7,3.5-6.6,6.4-8.9,2.9-2.3,6.6-3.9,11.2-4.9,4.6-1,10.1-1.5,16.5-1.5s11.9.5,16.5,1.5c4.6,1,8.3,2.6,11.2,4.9,2.9,2.3,5,5.3,6.4,8.9,1.4,3.7,2,8.2,2,13.5v50h-23.2v-48.2c0-2-.1-3.8-.4-5.3-.3-1.5-.9-2.7-1.8-3.7-.9-1-2.2-1.7-3.9-2.1-1.7-.4-4-.7-6.8-.7s-5.1.2-6.8.7c-1.7.4-3,1.1-3.9,2.1-.9,1-1.5,2.2-1.8,3.7-.3,1.5-.4,3.2-.4,5.3v48.2h-23.2Z"/>
    <path class="cls-1" d="M546.7,341.8c-6.3,0-11.8-.5-16.3-1.5-4.5-1-8.3-2.6-11.2-4.8-2.9-2.2-5.1-5.2-6.4-8.9-1.4-3.7-2-8.3-2-13.7v-49.8h23.2v48.8c0,2,.1,3.8.4,5.3s.9,2.7,1.8,3.7c.9,1,2.1,1.7,3.8,2.1,1.7.4,3.9.7,6.7.7s4.9-.2,6.6-.7c1.7-.4,2.9-1.1,3.8-2.1.9-1,1.5-2.2,1.8-3.7s.4-3.2.4-5.3v-48.8h23.2v49.8c0,5.5-.7,10-2,13.7-1.4,3.7-3.5,6.7-6.4,8.9-2.9,2.2-6.6,3.8-11.2,4.8-4.5,1-9.9,1.5-16.1,1.5Z"/>
    <path class="cls-1" d="M596.5,339.4v-50c0-5.4.7-9.9,2-13.5,1.4-3.7,3.5-6.6,6.4-8.9,2.9-2.3,6.6-3.9,11.2-4.9,4.6-1,10.1-1.5,16.5-1.5s11.9.5,16.5,1.5c4.6,1,8.3,2.6,11.2,4.9,2.9,2.3,5,5.3,6.4,8.9,1.4,3.7,2,8.2,2,13.5v50h-23.2v-48.2c0-2-.1-3.8-.4-5.3-.3-1.5-.9-2.7-1.8-3.7-.9-1-2.2-1.7-3.9-2.1-1.7-.4-4-.7-6.8-.7s-5.1.2-6.8.7c-1.7.4-3,1.1-3.9,2.1-.9,1-1.5,2.2-1.8,3.7-.3,1.5-.4,3.2-.4,5.3v48.2h-23.2Z"/>
    <path class="cls-1" d="M732.8,331.7c-1.9,1.4-4.3,2.4-7.2,3.2-2.8.8-6.5,1.2-11.1,1.2s-10.9-.7-15-2c-4.2-1.3-7.6-3.4-10.3-6.2-2.7-2.8-4.7-6.5-5.9-10.9-1.3-4.4-1.9-9.8-1.9-16v-5.3c0-5.9.6-11.1,1.9-15.5,1.3-4.4,3.4-8,6.3-11,2.9-2.9,6.8-5.1,11.5-6.5,4.8-1.4,10.7-2.1,17.8-2.1s13.3.7,18.1,2.2c4.8,1.5,8.6,3.6,11.4,6.5,2.8,2.9,4.8,6.4,5.9,10.5,1.1,4.1,1.7,8.8,1.7,14.1v39.1c0,5.7-.7,10.6-2,14.7-1.3,4-3.5,7.4-6.4,9.9-3,2.6-6.9,4.5-11.7,5.7-4.8,1.2-10.7,1.8-17.6,1.8h-10.9c-2.2,0-4.8,0-7.8,0-3,0-6.6-.1-10.8-.2l3.5-18.8c3.5,0,6.5.2,9,.2,2.5,0,4.6,0,6.5,0h8.9c3.1,0,5.7-.2,7.7-.5,2-.3,3.7-1,5-2,1.3-1,2.1-2.4,2.6-4.2.5-1.8.7-4.2.7-7.2v-.9ZM718.9,317.2c2.8,0,5.1-.2,6.9-.7,1.8-.4,3.2-1.2,4.2-2.3,1-1.1,1.7-2.5,2.1-4.4.4-1.8.6-4.2.6-7v-6.1c0-3.5-.1-6.4-.4-8.6-.3-2.2-.9-4-1.9-5.3-1-1.3-2.4-2.1-4.2-2.6-1.9-.5-4.3-.7-7.3-.7s-5.6.2-7.4.7c-1.8.5-3.2,1.4-4.2,2.6-1,1.3-1.7,3-2,5.3-.3,2.2-.4,5.1-.4,8.6v3.2c0,3.5.2,6.4.5,8.6.3,2.2,1,4,2,5.3,1,1.3,2.4,2.1,4.2,2.6,1.8.5,4.3.7,7.3.7Z"/>
  </g>
</svg>