<?xml version="1.0" encoding="UTF-8"?>
<svg id="Ebene_1" data-name="Ebene 1" xmlns="http://www.w3.org/2000/svg" version="1.1" viewBox="0 0 850.4 425.2">
  <defs>
    <style>
      .cls-1 {
        fill: #ff5f00;
      }

      .cls-1, .cls-2, .cls-3, .cls-4 {
        stroke-width: 0px;
      }

      .cls-2 {
        fill: #1434cb;
      }

      .cls-3 {
        fill: #eb001b;
      }

      .cls-4 {
        fill: #f79e1b;
      }
    </style>
  </defs>
  <path id="path3789" class="cls-2" d="M314.4,50.4c-29.5,0-55.8,15.3-55.8,43.5s46.7,34.6,46.7,50.9-7.8,13-21.2,13c-19,0-33.2-8.6-33.2-8.6l-6.1,28.5s16.4,7.2,38.1,7.2c32.2,0,57.6-16,57.6-44.7s-46.9-36.4-46.9-51.5,6.4-11.2,19.8-11.2,27.4,6.2,27.4,6.2l6-27.5s-13.4-5.8-32.3-5.8h0ZM44.7,52.5l-.7,4.2s12.4,2.3,23.6,6.8c14.4,5.2,15.4,8.2,17.8,17.6l26.4,101.7h35.4l54.5-130.3h-35.3l-35,88.6-14.3-75.1c-1.3-8.6-8-13.5-16.1-13.5h-56.3ZM215.9,52.5l-27.7,130.3h33.7l27.6-130.3h-33.6ZM403.5,52.5c-8.1,0-12.4,4.3-15.6,11.9l-49.3,118.3h35.3l6.8-19.7h43l4.2,19.7h31.1l-27.2-130.3h-28.4ZM408.1,87.7l10.5,48.9h-28l17.6-48.9h0Z"/>
  <g>
    <path class="cls-1" d="M584.5,198.7h88.5v159.1h-88.5v-159.1Z"/>
    <path class="cls-3" d="M590.2,278.2c0-32.3,15.2-61,38.5-79.5-17.1-13.5-38.8-21.6-62.4-21.6-55.9,0-101.2,45.3-101.2,101.2s45.3,101.2,101.2,101.2,45.3-8.2,62.4-21.6c-23.3-18.3-38.5-47.2-38.5-79.5Z"/>
    <path class="cls-4" d="M792.5,278.2c0,55.9-45.3,101.2-101.2,101.2s-45.3-8.2-62.4-21.6c23.6-18.5,38.5-47.2,38.5-79.5s-15.2-61-38.5-79.5c17.1-13.5,38.8-21.6,62.4-21.6,55.9,0,101.2,45.5,101.2,101.2Z"/>
  </g>
</svg>