<?xml version="1.0" encoding="UTF-8"?>
<svg id="Ebene_1" data-name="Ebene 1" xmlns="http://www.w3.org/2000/svg" version="1.1" viewBox="0 0 850.4 425.2">
  <defs>
    <style>
      .cls-1 {
        fill: #ff5f00;
      }

      .cls-1, .cls-2, .cls-3, .cls-4 {
        stroke-width: 0px;
      }

      .cls-2 {
        fill: #eb001b;
      }

      .cls-3 {
        fill: #331e4b;
      }

      .cls-4 {
        fill: #f79e1b;
      }
    </style>
  </defs>
  <g>
    <g>
      <path class="cls-3" d="M650.2,78.2c1.3-2,2.9-3.9,4.6-5.6-6.2-3.4-12.9-5.9-19.8-7.6,5.5,3.2,10.6,7.6,15.2,13.2Z"/>
      <path class="cls-3" d="M634.1,101.6c3.3-.2,6.6-.5,9.8-.9,0-.5,0-1,0-1.5,0-5.1,1-10,3-14.7.5-1.2,1.1-2.3,1.7-3.4-7.7-9.6-17-15.8-26.7-17.7,4.3,5.1,7.3,14.3,9.3,22.5,1.2,4.8,2.2,10.1,3,15.8Z"/>
      <path class="cls-3" d="M598.9,101.8c5.3.3,10.6.5,16,.5s10.7-.2,16-.5c-.8-5.5-1.8-10.6-2.9-15.2-1.9-7.7-4-13.8-6.4-18-1.5-2.7-3.9-5.9-6.7-6h0c-2.7,0-5.1,3.2-6.6,6-2.4,4.2-4.5,10.2-6.4,18-1.1,4.7-2.1,9.8-2.9,15.2Z"/>
      <path class="cls-3" d="M570.9,98.5c7.9,1.5,16.3,2.5,24.9,3.1.8-5.7,1.8-10.9,3-15.8,2-8.2,5-17.4,9.3-22.5-14.9,3-28.4,15.6-37.2,35.2Z"/>
      <path class="cls-3" d="M587.3,70.4c2.5-2.1,5-3.9,7.7-5.4-17.5,4.2-33.3,14-45,28.3,5.5,1.8,11.5,3.3,17.8,4.5,5-11.3,11.7-20.8,19.5-27.4Z"/>
      <path class="cls-3" d="M567.7,195.9c-6.3,1.3-12.3,2.8-17.8,4.5,11.8,14.3,27.5,24.1,45,28.3-2.6-1.5-5.2-3.3-7.7-5.4-7.8-6.6-14.5-16.1-19.5-27.4Z"/>
      <path class="cls-3" d="M595.8,192.2c-8.6.6-17,1.7-24.9,3.1,8.8,19.5,22.3,32.2,37.2,35.1-4.3-5.1-7.3-14.3-9.3-22.5-1.2-4.8-2.2-10.1-3-15.8Z"/>
      <path class="cls-3" d="M630.9,192c-5.3-.3-10.6-.5-16-.5s-10.7.2-16,.5c.8,5.5,1.8,10.6,2.9,15.2,1.9,7.7,4,13.8,6.4,18,1.5,2.7,3.9,5.9,6.6,6h0c2.7,0,5.1-3.2,6.6-6,2.4-4.2,4.5-10.2,6.4-18,1.1-4.7,2.1-9.8,2.9-15.2Z"/>
      <path class="cls-3" d="M659,195.3c-7.9-1.4-16.3-2.5-24.9-3.1-.8,5.7-1.8,10.9-3,15.8-2,8.2-5,17.4-9.3,22.5,14.9-3,28.4-15.6,37.2-35.1Z"/>
      <path class="cls-3" d="M642.6,223.3c-2.5,2.1-5,3.9-7.7,5.4,17.5-4.2,33.3-14,45-28.3-5.5-1.8-11.5-3.3-17.8-4.5-5,11.3-11.7,20.8-19.5,27.4Z"/>
      <path class="cls-3" d="M663.4,193c6.6,1.3,12.9,3,18.7,4.9,10.9-14.3,16.8-31.3,17.1-49.4h-27.3c-.2,15.8-3.1,31.1-8.5,44.5Z"/>
      <path class="cls-3" d="M634.5,189.1c8.9.7,17.6,1.8,25.7,3.3,5.4-13.1,8.3-28.3,8.5-43.9h-31.6c0,14.4-1,28.3-2.6,40.6Z"/>
      <path class="cls-3" d="M598.5,188.9c5.4-.3,10.9-.5,16.4-.5s11,.2,16.4.5c1.7-12.2,2.6-26,2.6-40.4h-38.2c0,14.4,1,28.2,2.6,40.4Z"/>
      <path class="cls-3" d="M569.6,192.4c8.1-1.5,16.8-2.6,25.7-3.3-1.7-12.3-2.6-26.2-2.6-40.6h-31.6c.2,15.7,3.1,30.8,8.5,43.9Z"/>
      <path class="cls-3" d="M558,148.5h-27.3c.3,18,6.2,35.1,17.1,49.4,5.8-1.9,12-3.5,18.7-4.9-5.4-13.4-8.3-28.7-8.5-44.5Z"/>
      <path class="cls-3" d="M566.5,100.8c-6.7-1.4-12.9-3-18.7-4.9-10.9,14.3-16.8,31.3-17.1,49.4h27.3c.2-15.8,3.1-31.1,8.5-44.5Z"/>
      <path class="cls-3" d="M595.4,104.7c-8.9-.7-17.6-1.8-25.7-3.3-5.4,13.1-8.3,28.2-8.5,43.9h31.6c0-14.4,1-28.3,2.6-40.6Z"/>
      <path class="cls-3" d="M631.4,104.9c-5.4.3-10.9.5-16.4.5s-11-.2-16.4-.5c-1.7,12.2-2.6,26-2.6,40.4h38.2c0-14.4-1-28.2-2.6-40.4Z"/>
      <path class="cls-3" d="M666.9,133.8c-4.5-1.9-8.5-4.6-12-8.1-3.5-3.5-6.2-7.5-8.1-12-1.4-3.2-2.3-6.6-2.7-10-3.2.4-6.4.7-9.7.9,1.7,12.3,2.6,26.2,2.6,40.6h31.6c0-3.7-.2-7.3-.6-10.9-.4-.2-.9-.3-1.3-.5Z"/>
      <path class="cls-3" d="M698.1,133c-.6.3-1.2.6-1.8.8-4.6,2-9.6,3-14.7,3s-6.8-.5-10.1-1.4c.3,3.3.4,6.6.5,9.9h27.3c0-4.1-.5-8.3-1.1-12.3Z"/>
    </g>
    <g>
      <path class="cls-1" d="M688.2,73.4h28v50.4h-28v-50.4Z"/>
      <path class="cls-2" d="M690,98.6c0-10.2,4.8-19.3,12.2-25.2-5.4-4.3-12.3-6.9-19.7-6.9-17.7,0-32,14.3-32,32s14.3,32,32,32,14.3-2.6,19.7-6.9c-7.4-5.8-12.2-14.9-12.2-25.2Z"/>
      <path class="cls-4" d="M754,98.6c0,17.7-14.3,32-32,32s-14.3-2.6-19.7-6.9c7.5-5.9,12.2-14.9,12.2-25.2s-4.8-19.3-12.2-25.2c5.4-4.3,12.3-6.9,19.7-6.9,17.7,0,32,14.4,32,32Z"/>
    </g>
  </g>
  <g>
    <path class="cls-3" d="M97.5,257.2h17.9v46.6c0,3.4.2,6.2.6,8.5.4,2.3,1.1,4.1,2.2,5.4,1.1,1.3,2.5,2.3,4.4,2.8,1.8.5,4.2.8,7.2.8s5.3-.3,7.1-.8c1.9-.5,3.4-1.5,4.4-2.8,1.1-1.3,1.8-3.1,2.3-5.4.4-2.3.6-5.1.6-8.5v-46.6h17.8v46.5c0,5.6-.5,10.5-1.5,14.6-1,4.1-2.8,7.5-5.3,10.1-2.5,2.7-5.8,4.7-9.9,6s-9.3,1.9-15.6,1.9-11.5-.7-15.6-1.9-7.4-3.3-9.9-6c-2.5-2.7-4.2-6-5.3-10.1-1-4.1-1.5-8.9-1.5-14.6v-46.5ZM126.7,243.6c0,2.5-.7,4.5-2,5.8-1.3,1.4-3.6,2.1-6.7,2.1s-5.3-.7-6.5-2.1c-1.3-1.4-1.9-3.3-1.9-5.8s.6-4.5,1.9-5.8c1.3-1.3,3.4-2,6.5-2s5.3.7,6.7,2c1.3,1.3,2,3.3,2,5.8ZM149.7,243.6c0,2.5-.7,4.5-1.9,5.8-1.3,1.4-3.5,2.1-6.6,2.1s-5.3-.7-6.6-2.1c-1.3-1.4-1.9-3.3-1.9-5.8s.6-4.5,1.9-5.8c1.3-1.3,3.5-2,6.6-2s5.3.7,6.6,2c1.3,1.3,1.9,3.3,1.9,5.8Z"/>
    <path class="cls-3" d="M228.5,309c0,4.8-.5,9-1.5,12.4-1,3.4-2.6,6.2-4.8,8.4-2.2,2.2-5.1,3.8-8.7,4.8-3.6,1-8,1.5-13.2,1.5s-9.1-.5-12.6-1.4c-3.5-.9-6.3-2.5-8.5-4.5-2.2-2.1-3.8-4.8-4.8-8.2-1-3.4-1.5-7.5-1.5-12.5v-55.5h17.2v25.4c1.5-1,3.4-1.8,5.6-2.4,2.2-.6,5-.9,8.4-.9s7.7.5,10.8,1.5c3.1,1,5.6,2.5,7.6,4.7,2,2.2,3.5,5,4.5,8.4,1,3.4,1.5,7.6,1.5,12.5v6ZM200.7,289.5c-2.2,0-3.9.2-5.3.5-1.4.3-2.5.9-3.2,1.8-.8.9-1.3,2.1-1.6,3.7-.3,1.6-.4,3.5-.4,5.9v8c0,2.8.1,5.1.4,6.8.3,1.7.8,3.1,1.6,4,.8.9,1.9,1.5,3.2,1.8,1.4.3,3.1.5,5.2.5s3.6-.1,4.9-.4c1.3-.3,2.4-.9,3.2-1.8.8-.9,1.4-2.2,1.7-4,.3-1.7.5-4,.5-6.9v-6.6c0-2.8-.2-5.1-.5-6.9-.3-1.8-.9-3.1-1.7-4.1-.8-.9-1.8-1.6-3.1-1.9-1.3-.3-3-.5-5-.5Z"/>
    <path class="cls-3" d="M254.1,311.8c0,1.9.3,3.4.6,4.5.3,1.2.9,2.1,1.7,2.8.8.7,1.9,1.2,3.3,1.5,1.4.3,3.1.4,5.2.4h9.6c3.4,0,7.3,0,11.5-.1l-2.5,13.4c-3.6.1-7,.2-10.1.2h-10.2c-5.1,0-9.4-.5-12.8-1.6-3.4-1-6.1-2.6-8.1-4.8-2-2.1-3.4-4.8-4.3-8-.8-3.2-1.2-7-1.2-11.3v-6c0-4.5.5-8.5,1.4-11.9.9-3.4,2.4-6.2,4.5-8.4,2.1-2.2,4.9-3.9,8.3-5,3.4-1.1,7.7-1.7,12.7-1.7,9.1,0,15.6,1.9,19.5,5.7,3.9,3.8,5.8,9.1,5.8,15.9v2.3c0,2.4-.1,4.3-.4,5.8-.3,1.5-.8,2.7-1.6,3.7-.8.9-1.8,1.6-3,1.9-1.2.4-2.7.5-4.5.5h-25.6ZM263.4,288.6c-1.9,0-3.5.2-4.7.5-1.2.3-2.1.9-2.8,1.7-.7.8-1.2,2-1.4,3.4-.3,1.4-.4,3.3-.4,5.6h18.7c0-2.3-.1-4.2-.4-5.6-.3-1.4-.7-2.6-1.5-3.4-.7-.8-1.7-1.4-2.9-1.7-1.2-.3-2.8-.5-4.7-.5Z"/>
    <path class="cls-3" d="M315.4,334.3h-17.2v-35.6c0-4,.5-7.4,1.5-10.2,1-2.7,2.5-4.9,4.6-6.6,2.1-1.7,4.6-2.8,7.7-3.5,3.1-.7,6.6-1,10.7-1h6.1c2,0,4.3,0,6.9.2l-2.6,14c-.7,0-1.8-.1-3.6-.2-1.7,0-3.4,0-5.1,0s-3.5.2-4.7.5c-1.2.4-2.1.9-2.8,1.6-.6.7-1.1,1.7-1.2,2.9-.2,1.2-.3,2.6-.3,4.2v33.8Z"/>
    <path class="cls-3" d="M397.8,316.5l8.3-38.8h16.7l-16.5,56.6h-16.8l-8.4-35.7-8.7,35.7h-17.2l-16.2-56.6h17.4l8.1,38.7,9.3-38.7h14.8l9.1,38.8Z"/>
    <path class="cls-3" d="M443.1,311.8c0,1.9.3,3.4.6,4.5.3,1.2.9,2.1,1.7,2.8.8.7,1.9,1.2,3.3,1.5,1.4.3,3.1.4,5.2.4h9.6c3.4,0,7.3,0,11.5-.1l-2.5,13.4c-3.6.1-7,.2-10.1.2h-10.2c-5.1,0-9.4-.5-12.8-1.6-3.4-1-6.1-2.6-8.1-4.8-2-2.1-3.4-4.8-4.3-8-.8-3.2-1.2-7-1.2-11.3v-6c0-4.5.5-8.5,1.4-11.9.9-3.4,2.4-6.2,4.5-8.4,2.1-2.2,4.9-3.9,8.3-5,3.4-1.1,7.7-1.7,12.7-1.7,9.1,0,15.6,1.9,19.5,5.7,3.9,3.8,5.8,9.1,5.8,15.9v2.3c0,2.4-.1,4.3-.4,5.8-.3,1.5-.8,2.7-1.6,3.7-.8.9-1.8,1.6-3,1.9-1.2.4-2.7.5-4.5.5h-25.6ZM452.4,288.6c-1.9,0-3.5.2-4.7.5-1.2.3-2.1.9-2.8,1.7-.7.8-1.2,2-1.4,3.4-.3,1.4-.4,3.3-.4,5.6h18.7c0-2.3-.1-4.2-.4-5.6-.3-1.4-.7-2.6-1.5-3.4-.7-.8-1.7-1.4-2.9-1.7-1.2-.3-2.8-.5-4.7-.5Z"/>
    <path class="cls-3" d="M505.5,262.1c0,3-.7,5.1-2.1,6.4-1.4,1.3-3.9,1.9-7.7,1.9s-6.4-.6-7.8-1.9c-1.4-1.3-2.1-3.4-2.1-6.4s.7-4.9,2.1-6.2c1.4-1.3,4-2,7.8-2s6.3.7,7.7,2c1.4,1.3,2.1,3.4,2.1,6.2ZM487.1,277.7h17.2v56.6h-17.2v-56.6Z"/>
    <path class="cls-3" d="M529.6,294c0,1.2.4,2,1.1,2.5.7.5,2.3.9,4.9,1.1l10,.9c3.3.3,6.1.9,8.3,1.8,2.2.9,4,2.1,5.4,3.6,1.3,1.4,2.3,3.1,2.8,5,.5,1.9.8,4,.8,6.2v1.8c0,6-2,10.4-6,13.2-4,2.8-10.2,4.2-18.7,4.2h-11.2c-2.3,0-4.7,0-7.2,0-2.5,0-4.8,0-7-.2l2.4-13.3c3.6,0,7.6.1,11.9.2,4.3,0,8.2,0,11.7,0s5.1-.3,6.1-.8c1-.5,1.6-1.6,1.6-3.1s-.4-2.1-1.1-2.8c-.7-.6-2.3-1-4.9-1.1l-10.6-.8c-6-.4-10.3-2.2-12.8-5.2-2.5-3-3.8-6.7-3.8-11.2v-2.1c0-2.7.4-5,1.3-7.1.9-2.1,2.3-3.8,4.2-5.3,1.9-1.4,4.4-2.5,7.5-3.3,3.1-.8,6.9-1.1,11.4-1.1h9.4c1.9,0,4,0,6.4,0,2.4,0,5.2,0,8.3.2l-2.5,13.3c-3.3,0-6.2-.1-8.6-.2-2.4,0-4.5,0-6.3,0h-7.8c-2.6,0-4.4.2-5.4.5-1,.4-1.5,1.3-1.5,2.7Z"/>
    <path class="cls-3" d="M598.3,336.1c-4.7,0-8.7-.4-12.1-1.1-3.4-.7-6.1-1.9-8.3-3.6-2.2-1.7-3.8-3.9-4.8-6.6-1-2.7-1.5-6.1-1.5-10.2v-36.9h17.2v36.2c0,1.5.1,2.8.3,3.9.2,1.1.6,2,1.3,2.7.6.7,1.6,1.2,2.8,1.6,1.2.3,2.9.5,5,.5s3.6-.2,4.9-.5c1.2-.3,2.2-.8,2.8-1.6.6-.7,1.1-1.6,1.3-2.7.2-1.1.3-2.4.3-3.9v-36.2h17.2v36.9c0,4-.5,7.4-1.5,10.2-1,2.7-2.6,4.9-4.8,6.6-2.2,1.7-4.9,2.9-8.3,3.6s-7.3,1.1-12,1.1Z"/>
    <path class="cls-3" d="M635.2,334.3v-37c0-4,.5-7.3,1.5-10,1-2.7,2.6-4.9,4.7-6.6,2.1-1.7,4.9-2.9,8.3-3.6,3.4-.7,7.5-1.1,12.2-1.1s8.8.4,12.2,1.1c3.4.7,6.2,1.9,8.3,3.6,2.1,1.7,3.7,3.9,4.7,6.6,1,2.7,1.5,6,1.5,10v37h-17.2v-35.7c0-1.5-.1-2.8-.3-3.9-.2-1.1-.6-2-1.3-2.7-.6-.7-1.6-1.2-2.9-1.6-1.3-.3-2.9-.5-5-.5s-3.8.2-5,.5c-1.3.3-2.2.8-2.9,1.6-.6.7-1.1,1.6-1.3,2.7-.2,1.1-.3,2.4-.3,3.9v35.7h-17.2Z"/>
    <path class="cls-3" d="M736.3,328.6c-1.4,1-3.2,1.8-5.3,2.4-2.1.6-4.8.9-8.2.9s-8-.5-11.2-1.5c-3.1-1-5.6-2.5-7.6-4.6-2-2.1-3.4-4.8-4.4-8.1-.9-3.3-1.4-7.2-1.4-11.9v-3.9c0-4.4.5-8.2,1.4-11.5.9-3.2,2.5-6,4.7-8.1,2.2-2.2,5-3.8,8.6-4.8,3.5-1,7.9-1.6,13.2-1.6s9.9.5,13.4,1.6c3.5,1.1,6.4,2.7,8.4,4.8,2.1,2.1,3.6,4.7,4.4,7.8.8,3.1,1.2,6.6,1.2,10.4v29c0,4.3-.5,7.9-1.5,10.9-1,3-2.6,5.4-4.8,7.4-2.2,1.9-5.1,3.3-8.7,4.2-3.6.9-7.9,1.4-13,1.4h-8.1c-1.6,0-3.6,0-5.8,0-2.2,0-4.9,0-8-.2l2.6-14c2.6,0,4.8.1,6.7.2,1.8,0,3.4,0,4.8,0h6.6c2.3,0,4.2-.1,5.7-.4,1.5-.3,2.7-.7,3.7-1.5.9-.7,1.6-1.8,1.9-3.1.4-1.4.5-3.1.5-5.3v-.6ZM726,317.9c2.1,0,3.8-.2,5.1-.5,1.3-.3,2.4-.9,3.1-1.7.8-.8,1.3-1.9,1.6-3.2.3-1.4.4-3.1.4-5.2v-4.5c0-2.6-.1-4.7-.3-6.4-.2-1.7-.7-3-1.4-3.9-.7-.9-1.8-1.6-3.1-1.9-1.4-.4-3.2-.5-5.4-.5s-4.1.2-5.5.5c-1.3.4-2.4,1-3.1,1.9-.8.9-1.2,2.2-1.5,3.9-.2,1.7-.3,3.8-.3,6.4v2.4c0,2.6.1,4.7.4,6.4.3,1.7.7,3,1.5,3.9.7.9,1.8,1.6,3.1,1.9,1.4.4,3.2.5,5.4.5Z"/>
  </g>
  <g>
    <path class="cls-3" d="M223.4,172.4h24.3c5.1,0,9.3.5,12.7,1.6,3.4,1.1,6,2.7,8,4.8,2,2.2,3.4,4.8,4.2,8.1.8,3.2,1.2,7,1.2,11.4v7c0,4.2-.4,8-1.2,11.2-.8,3.2-2.2,5.9-4.2,8.1-2,2.2-4.6,3.9-7.9,5-3.3,1.1-7.5,1.7-12.5,1.7h-24.6v-58.9ZM236.8,219.8h9.8c2.4,0,4.5-.2,6.1-.6,1.7-.4,3-1.2,4-2.2,1-1.1,1.8-2.6,2.2-4.5.4-1.9.7-4.3.7-7.3v-6.9c0-3-.2-5.4-.7-7.3-.4-1.9-1.2-3.4-2.2-4.4-1-1.1-2.4-1.8-4-2.2-1.7-.4-3.7-.6-6.1-.6h-9.8v36.1Z"/>
    <path class="cls-3" d="M295.3,176.1c0,2.3-.5,3.9-1.6,4.9-1,1-3,1.5-5.9,1.5s-4.9-.5-6-1.5c-1-1-1.6-2.6-1.6-4.9s.5-3.7,1.6-4.8c1-1,3-1.5,6-1.5s4.8.5,5.9,1.5c1,1,1.6,2.6,1.6,4.8ZM281.2,188h13.2v43.3h-13.2v-43.3Z"/>
    <path class="cls-3" d="M315.4,231.3h-13.2v-27.2c0-3.1.4-5.7,1.2-7.8.8-2.1,1.9-3.8,3.5-5,1.6-1.3,3.5-2.2,5.9-2.7,2.3-.5,5.1-.8,8.1-.8h4.7c1.5,0,3.3,0,5.3.2l-2,10.7c-.5,0-1.4,0-2.7-.1-1.3,0-2.6,0-3.9,0s-2.7.1-3.6.4c-.9.3-1.6.7-2.1,1.2-.5.6-.8,1.3-1,2.2-.1.9-.2,2-.2,3.2v25.8Z"/>
    <path class="cls-3" d="M346.4,214c0,1.4.2,2.6.5,3.5.2.9.7,1.6,1.3,2.2.6.6,1.5.9,2.5,1.1,1,.2,2.4.3,4,.3h7.3c2.6,0,5.6,0,8.8,0l-1.9,10.3c-2.8.1-5.3.2-7.7.2h-7.8c-3.9,0-7.2-.4-9.8-1.2-2.6-.8-4.7-2-6.2-3.6-1.5-1.6-2.6-3.7-3.3-6.1-.6-2.5-1-5.3-1-8.6v-4.5c0-3.5.3-6.5,1-9.1s1.8-4.7,3.5-6.4c1.6-1.7,3.7-3,6.4-3.8,2.6-.9,5.9-1.3,9.7-1.3,6.9,0,11.9,1.4,14.9,4.3,3,2.9,4.5,6.9,4.5,12.1v1.7c0,1.8-.1,3.3-.3,4.5-.2,1.2-.6,2.1-1.2,2.8-.6.7-1.3,1.2-2.3,1.5-.9.3-2.1.4-3.5.4h-19.5ZM353.5,196.3c-1.5,0-2.7.1-3.6.4-.9.2-1.6.7-2.2,1.3-.5.6-.9,1.5-1.1,2.6-.2,1.1-.3,2.5-.3,4.3h14.3c0-1.8,0-3.2-.3-4.3-.2-1.1-.6-2-1.1-2.6-.6-.6-1.3-1.1-2.2-1.3-.9-.2-2.1-.4-3.6-.4Z"/>
    <path class="cls-3" d="M393.2,203.7l14.2-15.7h15.6l-18.4,19.4,20,23.8h-16l-15.5-18.9v18.9h-13.2v-61.5h13.2v33.9Z"/>
    <path class="cls-3" d="M440.2,198.3v15.6c0,1.4,0,2.6.2,3.5.2.9.5,1.6,1,2.2.5.5,1.2.9,2,1.1.9.2,2,.3,3.4.3h4.2c.8,0,1.5,0,2.2,0,.7,0,1.2,0,1.4,0l-2,10.3h-1.4c-.6,0-1.3,0-2.1,0-.8,0-1.5,0-2.3,0h-1.8c-3.7,0-6.7-.3-9.1-.8-2.4-.5-4.2-1.4-5.6-2.7-1.4-1.3-2.3-3-2.8-5.3-.5-2.2-.7-5-.7-8.4v-36.2l13.2-1.9v11.9h15.1l-2,10.3h-13.1Z"/>
    <path class="cls-3" d="M455.7,212.8l2.2-11.4h27l-2.2,11.4h-27.1Z"/>
  </g>
</svg>