<?xml version="1.0" encoding="UTF-8"?>
<svg id="Ebene_1" xmlns="http://www.w3.org/2000/svg" version="1.1" viewBox="0 0 850.4 425.2">
  <!-- Generator: Adobe Illustrator 29.0.1, SVG Export Plug-In . SVG Version: 2.1.0 Build 192)  -->
  <defs>
    <style>
      .st0 {
        font-size: 86.3px;
      }

      .st0, .st1, .st2 {
        fill: #331e4b;
      }

      .st0, .st2 {
        font-family: Prometo-Bold, Prometo;
        font-weight: 700;
      }

      .st3 {
        fill: #ff4f00;
      }

      .st4 {
        fill: #171717;
      }

      .st1, .st5 {
        fill-rule: evenodd;
      }

      .st6 {
        fill: #f90;
      }

      .st7 {
        font-family: Raleway-SemiBold, Raleway;
        font-size: 69.3px;
        font-weight: 600;
      }

      .st7, .st5 {
        fill: #913b8e;
      }

      .st8 {
        fill: red;
      }

      .st2 {
        font-size: 112.9px;
      }
    </style>
  </defs>
  <g>
    <g>
      <text class="st2" transform="translate(74.2 290.4)"><tspan x="0" y="0">Überweisung</tspan></text>
      <text class="st0" transform="translate(154.7 183)"><tspan x="0" y="0">Direkt-</tspan></text>
    </g>
    <g>
      <path class="st5" d="M615.3,73.1h146.9v107.9h-193.1,0-1.4c-1.6,0-3-1.3-3-3h0c0-1.7,1.3-3,3-3h172.2l-.4-3.3h0c0-.7-.1-1.2-.1-1.7h0c0-3.3,1.3-6.3,3.5-8.5,2.2-2.2,5.1-3.5,8.5-3.5h0c.3,0,.5,0,.7,0,.2,0,.5,0,.9.1l3.4.5v-63.1l-3.4.5c-.3,0-.6.1-.9.1-.3,0-.5,0-.7,0h0c-3.3,0-6.3-1.4-8.5-3.5-2.2-2.2-3.5-5.2-3.5-8.5h0c0-.3,0-.6,0-.8,0-.3,0-.6.1-1l.4-3.3h-127.9c-1.6,0-3-1.3-3-3h0c0-1.6,1.3-3,3-3h3.3Z"/>
      <g>
        <path class="st5" d="M552.4,108.5h-7.4c-3.4,0-6.1,2.8-6.1,6.2s2.8,6.2,6.1,6.2h7.4c3.4,0,6.1-2.8,6.1-6.2s-2.8-6.2-6.1-6.2Z"/>
        <path class="st5" d="M559.7,145.5c3.4,0,6.2-2.8,6.2-6.2s-2.8-6.2-6.2-6.2h-14.7c-3.4,0-6.1,2.8-6.1,6.2s2.8,6.2,6.1,6.2h14.7Z"/>
        <path class="st5" d="M564,90c0-3.4-2.8-6.2-6.2-6.2h-29.3c-3.4,0-6.2,2.8-6.2,6.2s2.8,6.2,6.2,6.2h29.3c3.4,0,6.2-2.8,6.2-6.2Z"/>
        <path class="st5" d="M565.6,157.9h-14.7c-3.4,0-6.1,2.8-6.1,6.2s2.8,6.2,6.1,6.2h14.7c3.4,0,6.2-2.8,6.2-6.2s-2.8-6.2-6.2-6.2Z"/>
        <path class="st1" d="M750,100.2c-7.9,0-14.3-6.4-14.3-14.4s0-1.4.2-2.1h-64.4c0,0-59,0-59,0-.3,0-.5,0-.8,0h-29.4c-3.4,0-6.1,2.8-6.1,6.2s2.8,6.2,6.1,6.2h42.8c3.4,0,6.2,2.8,6.2,6.2s-2.8,6.2-6.2,6.2h-25v.2c-.5-.1-1-.2-1.5-.2h-29.4c-3.4,0-6.1,2.8-6.1,6.2s2.8,6.2,6.1,6.2h29.4c.5,0,1,0,1.5-.2v.2h6.6c3.4,0,6.2,2.8,6.2,6.2s-2.8,6.2-6.2,6.2h-28.8c-3.4,0-6.1,2.8-6.1,6.2s2.8,6.2,6.1,6.2h38c3.4,0,6.2,2.8,6.2,6.2s-2.8,6.2-6.2,6.2h-22.8c-3.4,0-6.1,2.8-6.1,6.2s2.8,6.2,6.1,6.2h29.4c.3,0,.5,0,.8,0h48.2c0,0,64.4,0,64.4,0,0-.7-.2-1.3-.2-2,0-8,6.4-14.4,14.3-14.4s1.3,0,1.9.2v-54c-.6,0-1.3.2-1.9.2ZM640.2,145.5h-7.3c-3.4,0-6.2-2.8-6.2-6.2s2.8-6.2,6.2-6.2h7.3c3.4,0,6.2,2.8,6.2,6.2s-2.8,6.2-6.2,6.2ZM717.2,127c-1.9,20.4-17.9,36.8-35.8,36.8s-31-16.4-29.1-36.8c1.9-20.4,17.9-36.8,35.8-36.8s30.9,16.4,29.1,36.8Z"/>
      </g>
      <text class="st7" transform="translate(652.6 151.4) scale(.9 1) skewX(-10)"><tspan x="0" y="0">€</tspan></text>
    </g>
  </g>
  <g>
    <g>
      <path class="st3" d="M338.2,320.4h-27.1v48.8h27.1v-48.8Z"/>
      <path class="st8" d="M312.8,344.7c0-9.9,4.6-18.7,11.8-24.4-5.3-4.2-11.9-6.6-19.2-6.6-17.1,0-31,13.9-31,31s13.9,31,31,31,13.9-2.5,19.2-6.6c-7.2-5.7-11.8-14.5-11.8-24.4Z"/>
      <path class="st6" d="M374.8,344.7c0,17.1-13.9,31-31,31s-13.9-2.5-19.2-6.6c7.2-5.7,11.8-14.5,11.8-24.4s-4.6-18.7-11.8-24.4c5.3-4.2,11.9-6.6,19.2-6.6,17.1,0,31,13.9,31,31Z"/>
    </g>
    <path class="st4" d="M93.4,340.9c-.3-.2-.6-.4-1-.6-.4-.2-.9-.4-1.3-.5-.5-.2-1-.3-1.6-.4-.5-.1-1.1-.2-1.7-.2s-1.2,0-1.7.2c-.5.1-.9.3-1.3.5-.3.2-.6.5-.8.9-.2.3-.3.7-.3,1.1,0,.7.3,1.3.9,1.7.6.4,1.5.6,2.6.7l2,.3c1.8.2,3.2.7,4.2,1.5,1,.8,1.5,1.9,1.5,3.3s-.2,1.6-.5,2.2c-.4.6-.9,1.2-1.5,1.7-.6.5-1.4.8-2.4,1.1-.9.3-2,.4-3.1.4s-1.1,0-1.8-.1c-.6,0-1.2-.2-1.8-.4-.6-.2-1.2-.4-1.8-.7-.6-.3-1.2-.6-1.7-1l1.2-2c.3.3.7.5,1.1.7.4.2.8.4,1.3.6.5.2,1,.3,1.6.4.6.1,1.2.2,2,.2,1.4,0,2.6-.2,3.4-.7.9-.5,1.3-1.2,1.3-2.1s-.3-1.2-.9-1.7c-.6-.4-1.5-.7-2.7-.9l-2-.2c-1.9-.2-3.4-.8-4.3-1.6-.9-.8-1.4-1.9-1.4-3.2s.2-1.5.5-2.2c.3-.6.8-1.2,1.4-1.6.6-.4,1.3-.8,2.2-1,.9-.2,1.8-.4,2.8-.4s2.6.2,3.8.5c1.2.3,2.2.8,3,1.3l-1.2,2.1h0Z"/>
    <path class="st4" d="M106.2,337c1.2,0,2.2.2,3.2.6,1,.4,1.8,1,2.5,1.8.7.8,1.3,1.7,1.7,2.8.4,1.1.6,2.3.6,3.6s0,.7,0,1h-13.7c.1.9.3,1.7.7,2.4.4.7.8,1.3,1.3,1.7.5.5,1.2.8,1.9,1.1.7.2,1.4.4,2.2.4s2-.2,2.9-.6c.9-.4,1.7-.9,2.5-1.6l1.4,1.8c-.5.5-1.1.9-1.7,1.3-.6.3-1.1.6-1.7.8-.6.2-1.2.4-1.8.4-.6,0-1.2.1-1.9.1-1.3,0-2.4-.2-3.5-.6-1.1-.4-2-1-2.7-1.8s-1.4-1.7-1.8-2.8c-.4-1.1-.6-2.3-.6-3.6s.2-2.5.6-3.6c.4-1.1,1-2,1.8-2.8.7-.8,1.7-1.4,2.7-1.8s2.2-.7,3.4-.7h0ZM106.1,339.4c-.8,0-1.5.1-2.2.4-.6.3-1.2.6-1.7,1.1-.5.5-.9,1-1.2,1.7s-.5,1.3-.6,2.1h11c0-.8-.3-1.5-.6-2.2-.3-.6-.7-1.2-1.1-1.7-.5-.4-1-.8-1.6-1.1-.6-.3-1.3-.4-2-.4Z"/>
    <path class="st4" d="M126.1,337c1.3,0,2.5.2,3.6.7,1.1.5,2,1.1,2.8,2l-1.7,1.8c-.6-.6-1.4-1.1-2.1-1.5-.8-.4-1.6-.5-2.6-.5s-1.7.2-2.4.5c-.7.3-1.4.7-1.9,1.3-.5.6-1,1.2-1.3,2-.3.8-.5,1.6-.5,2.6s.2,1.8.5,2.6c.3.8.7,1.4,1.3,2,.5.6,1.2,1,1.9,1.3.7.3,1.5.5,2.4.5s1.8-.2,2.6-.6c.8-.4,1.5-.9,2.1-1.4l1.7,1.8c-.8.9-1.7,1.6-2.8,2-1.1.5-2.3.7-3.5.7s-2.5-.2-3.6-.7c-1.1-.4-2-1.1-2.8-1.9-.8-.8-1.4-1.7-1.8-2.8-.4-1.1-.6-2.3-.6-3.5s.2-2.5.6-3.5c.4-1.1,1-2,1.8-2.8.8-.8,1.7-1.4,2.8-1.9,1.1-.4,2.3-.7,3.6-.7h0Z"/>
    <path class="st4" d="M151.6,347.3c0,1.3-.2,2.4-.6,3.3-.4.9-1,1.7-1.7,2.4-.7.6-1.6,1.1-2.5,1.4-.9.3-1.9.4-2.9.4s-2-.2-3-.4c-.9-.3-1.8-.7-2.5-1.4-.7-.6-1.3-1.4-1.7-2.4-.4-.9-.6-2-.6-3.3v-10h2.7v9.7c0,.9.1,1.7.4,2.3.3.6.6,1.2,1.1,1.6.4.4,1,.7,1.6,1,.6.2,1.3.3,2,.3s1.4-.1,2-.3c.6-.2,1.1-.5,1.6-1,.4-.4.8-1,1.1-1.6.3-.6.4-1.4.4-2.3v-9.7h2.7v10h0Z"/>
    <path class="st4" d="M164.7,337c.6,0,1.2,0,1.7.1.5,0,1,.2,1.4.4l-.6,2.7c-.4-.2-.9-.4-1.4-.5-.5-.1-1-.2-1.6-.2s-1.3.1-1.9.4c-.6.3-1,.6-1.4,1.1-.4.5-.7,1-1,1.7-.2.6-.3,1.4-.3,2.2v9.6h-2.7v-17.1h2.7v2.4c.6-.9,1.3-1.6,2.2-2,.9-.5,1.8-.7,2.9-.7h0Z"/>
    <path class="st4" d="M178.4,337c1.2,0,2.2.2,3.2.6,1,.4,1.8,1,2.5,1.8.7.8,1.3,1.7,1.7,2.8.4,1.1.6,2.3.6,3.6s0,.7,0,1h-13.7c.1.9.3,1.7.7,2.4.4.7.8,1.3,1.3,1.7.5.5,1.2.8,1.9,1.1.7.2,1.4.4,2.2.4s2-.2,2.9-.6c.9-.4,1.7-.9,2.5-1.6l1.4,1.8c-.5.5-1.1.9-1.7,1.3-.6.3-1.1.6-1.7.8-.6.2-1.2.4-1.8.4-.6,0-1.2.1-1.9.1-1.3,0-2.4-.2-3.5-.6-1.1-.4-2-1-2.7-1.8-.8-.8-1.4-1.7-1.8-2.8-.4-1.1-.6-2.3-.6-3.6s.2-2.5.6-3.6c.4-1.1,1-2,1.8-2.8.7-.8,1.7-1.4,2.7-1.8,1-.4,2.2-.7,3.4-.7h0ZM178.3,339.4c-.8,0-1.5.1-2.2.4-.6.3-1.2.6-1.7,1.1-.5.5-.9,1-1.2,1.7s-.5,1.3-.6,2.1h11c0-.8-.3-1.5-.6-2.2-.3-.6-.7-1.2-1.1-1.7-.5-.4-1-.8-1.6-1.1-.6-.3-1.3-.4-2-.4Z"/>
    <path class="st4" d="M197.9,337c1.4,0,2.7.3,3.7.8,1,.5,1.9,1.2,2.6,2.1v-11.5h2.7v26.1h-2.7v-2.6c-.7.9-1.6,1.6-2.6,2.1-1,.5-2.2.8-3.7.8s-2.3-.2-3.4-.7c-1-.4-1.9-1.1-2.7-1.9-.8-.8-1.4-1.7-1.8-2.8-.4-1.1-.7-2.3-.7-3.6s.2-2.5.7-3.6c.5-1.1,1-2,1.8-2.8.8-.8,1.7-1.4,2.7-1.9,1-.4,2.2-.7,3.4-.7h0ZM198.2,339.5c-.9,0-1.8.2-2.5.5-.7.3-1.4.8-1.9,1.4-.5.6-1,1.3-1.2,2-.3.8-.4,1.6-.4,2.5s.2,1.7.4,2.5c.3.8.7,1.4,1.3,2,.5.6,1.2,1,1.9,1.4.8.3,1.6.5,2.5.5s1.7-.2,2.5-.5c.8-.3,1.4-.8,1.9-1.3.5-.6,1-1.2,1.3-2,.3-.8.5-1.6.5-2.5s-.2-1.8-.5-2.5c-.3-.8-.7-1.4-1.3-2s-1.2-1-1.9-1.3c-.7-.3-1.6-.5-2.5-.5h0Z"/>
    <path class="st4" d="M230.2,337c1.2,0,2.3.2,3.4.7,1,.4,1.9,1.1,2.7,1.9.8.8,1.4,1.7,1.8,2.8.4,1.1.7,2.3.7,3.6s-.2,2.5-.7,3.6c-.4,1.1-1,2-1.8,2.8-.8.8-1.7,1.4-2.7,1.9-1,.5-2.2.7-3.4.7s-2.6-.3-3.7-.8c-1-.5-1.9-1.2-2.6-2.1v2.5h-2.7v-26.1h2.7v11.5c.7-.9,1.6-1.6,2.6-2.1,1-.5,2.2-.8,3.7-.8h0ZM229.9,339.5c-.9,0-1.7.2-2.5.5-.7.3-1.4.8-1.9,1.3-.5.6-1,1.2-1.3,2-.3.8-.4,1.6-.4,2.5s.2,1.8.4,2.5c.3.8.7,1.4,1.3,2,.5.6,1.2,1,1.9,1.3.8.3,1.6.5,2.5.5s1.8-.2,2.5-.5c.7-.3,1.4-.8,1.9-1.4.5-.6,1-1.3,1.2-2,.3-.8.4-1.6.4-2.5s-.2-1.7-.4-2.5c-.3-.8-.7-1.4-1.2-2-.5-.6-1.2-1-1.9-1.4-.8-.3-1.6-.5-2.5-.5h0Z"/>
    <path class="st4" d="M244.7,361.8h-3l6.4-11-7.9-13.4h3l6.4,10.8,6.1-10.8h3l-14,24.5h0Z"/>
  </g>
</svg>