<svg xmlns="http://www.w3.org/2000/svg" viewBox="0 0 200 53.24"><defs><style>.d{fill:#858a8e;}.e{fill:#d3171b;}.f{fill:#606263;}</style></defs><g id="a"></g><g id="b"><g id="c"><g><g><g><path class="d" d="M12.91,15.55S22.08-.15,37.33,0c15.24,.16,23.8,13.06,23.8,13.06,0,0-25.97-5.44-48.21,2.49h0Z"></path><path class="d" d="M53.81,47.9c13.77-8.98,10.11-27.06,10.11-27.06-21.15,2.96-43.86,26.44-43.86,26.44,0,0,15.86,12.29,33.75,.62h0Z"></path></g><path class="e" d="M5.6,20.38v10.73s26.44-15.86,55.83-14c0,0-26.28-5.44-55.83,3.27h0Z"></path><path class="e" d="M0,37.95l4.04,6.07s9.91-13.18,40.24-23.1c0,0-29.43,4.78-44.29,17.03H0Z"></path><path class="e" d="M17.22,35.85l4.2,4.67s11.78-12.13,28.81-18.66c0,0-19.01,3.97-33.01,14h0Z"></path><path class="e" d="M97.56,20.82c-1.28-2.1-2.91-3.7-4.88-4.82-1.97-1.12-4.14-1.68-6.5-1.68-3.79,0-6.93,1.28-9.42,3.85-2.48,2.57-3.73,5.82-3.73,9.76,0,1.83,.32,3.56,.95,5.19,.63,1.63,1.55,3.1,2.76,4.4,1.21,1.3,2.63,2.29,4.25,2.97,1.63,.68,3.39,1.02,5.28,1.02,1.72,0,3.33-.29,4.84-.88,1.51-.59,2.91-1.48,4.21-2.67v-2.98c-1.3,1.46-2.7,2.56-4.2,3.29-1.5,.73-3.12,1.1-4.85,1.1-3.14,0-5.74-1.08-7.79-3.25-2.05-2.17-3.08-4.91-3.08-8.24s1.04-6.03,3.12-8.21c2.08-2.19,4.66-3.28,7.75-3.28,3.29,0,5.91,1.16,7.87,3.48,1.96,2.32,2.94,5.45,2.94,9.39v11.76h2.28v-11.6c0-1.91-.14-3.56-.43-4.95-.29-1.38-.75-2.6-1.38-3.64h0Z"></path><path class="e" d="M127.29,18.3c-1.21-1.3-2.63-2.29-4.25-2.97-1.63-.68-3.39-1.02-5.28-1.02-1.72,0-3.33,.3-4.84,.89-1.51,.6-2.91,1.48-4.21,2.66v3.01c1.3-1.48,2.71-2.58,4.21-3.31,1.51-.72,3.12-1.08,4.84-1.08,3.14,0,5.75,1.08,7.8,3.25,2.06,2.17,3.09,4.92,3.09,8.24s-1.04,6.03-3.13,8.21c-2.09,2.19-4.67,3.28-7.76,3.28-3.29,0-5.92-1.16-7.9-3.5-1.98-2.33-2.97-5.46-2.97-9.38V2.2h-2.22V26.41c0,1.93,.15,3.59,.45,4.97,.3,1.38,.75,2.6,1.37,3.64,1.28,2.08,2.91,3.68,4.88,4.8,1.97,1.12,4.14,1.68,6.5,1.68,3.78,0,6.91-1.28,9.39-3.85,2.48-2.57,3.73-5.81,3.73-9.73,0-1.86-.32-3.61-.95-5.24-.63-1.63-1.55-3.09-2.74-4.38h0Z"></path><polygon class="e" points="135.23 41.01 137.51 41.01 137.51 14.81 135.23 14.81 135.23 41.01 135.23 41.01"></polygon><path class="e" d="M136.34,5.84c-.45,0-.83,.15-1.14,.46-.31,.31-.46,.69-.46,1.14s.16,.84,.48,1.17c.32,.32,.69,.49,1.12,.49,.47,0,.87-.16,1.19-.49,.32-.33,.49-.71,.49-1.17s-.16-.83-.49-1.14c-.33-.31-.72-.46-1.19-.46h0Z"></path><polygon class="e" points="143.55 41.01 145.83 41.01 145.83 2.2 143.55 2.2 143.55 41.01 143.55 41.01"></polygon><polygon class="e" points="151.87 41.01 154.14 41.01 154.14 14.81 151.87 14.81 151.87 41.01 151.87 41.01"></polygon><path class="e" d="M152.98,5.84c-.45,0-.83,.15-1.14,.46-.31,.31-.46,.69-.46,1.14s.16,.84,.48,1.17c.32,.32,.69,.49,1.12,.49,.47,0,.87-.16,1.19-.49,.33-.33,.49-.71,.49-1.17s-.16-.83-.49-1.14-.72-.46-1.19-.46h0Z"></path><path class="e" d="M162.14,7.38h-2.28v7.42h-3.83v2.12h3.83v14.93c0,3.05,.86,5.34,2.59,6.87,1.73,1.53,4.32,2.29,7.79,2.29h1.17v-2.11h-1.57c-2.67,0-4.63-.58-5.85-1.74-1.23-1.15-1.84-3-1.84-5.53v-14.66h9.27v-2.17h-9.27V7.38h0Z"></path><path class="e" d="M199.43,24.47c-.29-1.38-.75-2.6-1.38-3.64-1.28-2.1-2.91-3.7-4.88-4.82-1.97-1.12-4.14-1.68-6.5-1.68-3.79,0-6.93,1.28-9.42,3.85-2.48,2.57-3.73,5.82-3.73,9.76,0,1.83,.32,3.56,.95,5.19,.63,1.63,1.55,3.1,2.76,4.4,1.21,1.3,2.63,2.29,4.26,2.97,1.63,.68,3.39,1.02,5.28,1.02,1.72,0,3.33-.29,4.84-.88,1.51-.59,2.91-1.48,4.21-2.67v-2.98c-1.3,1.46-2.7,2.56-4.2,3.29-1.5,.73-3.12,1.1-4.85,1.1-3.14,0-5.74-1.08-7.79-3.25-2.05-2.17-3.08-4.91-3.08-8.24s1.04-6.03,3.12-8.21c2.08-2.19,4.66-3.28,7.75-3.28,3.29,0,5.91,1.16,7.87,3.48,1.96,2.32,2.94,5.45,2.94,9.39v11.76h2.28v-11.6c0-1.91-.14-3.56-.43-4.95h0Z"></path></g><path class="f" d="M165.7,45.3h.91c-.5,1.47-.99,2.91-1.49,4.38,.38,.1,.72,.06,1.1,.04v-1.86c.29-.1,.56-.05,.85-.05v1.88l.48,.1v.7l-.46,.05v1.19h-.83c-.09-.37,.02-.78-.07-1.2h-2.05c-.08-.29-.09-.54,0-.78,.49-1.44,.99-2.88,1.49-4.33,.01-.03,.03-.06,.06-.1Zm28.18,.57c-.45,1.22-.89,2.44-1.34,3.67-.3,.81-.59,1.63-.9,2.48h.48c.57-1.55,1.13-3.1,1.7-4.65h.08v4.63c.22,.09,.35,.06,.43-.13,.05-.12,.09-.24,.13-.36,.5-1.37,1.01-2.74,1.51-4.12,.21-.58,.42-1.17,.64-1.79h-.47c-.29,.78-.57,1.55-.85,2.32-.28,.75-.52,1.51-.91,2.23v-4.53c-.38-.02-.39-.03-.49,.26Zm-38.23,5.31c0,.43,.12,.56,.54,.57,.53,.01,1.07,.01,1.6,0,.38,0,.57-.19,.57-.56,.01-1.03,.01-2.06,0-3.09,0-.38-.19-.56-.57-.57-.53-.01-1.07-.01-1.6,0-.42,.01-.53,.14-.54,.56,0,.52,0,1.03,0,1.55s0,1.03,0,1.55Zm1.79-2.89c.09,.37,.1,2.14,.02,2.68h-.92c-.03-.08-.08-.17-.08-.26,.01-.8-.05-1.6,.04-2.42h.94Zm17.3,3.75c.56,0,.71-.12,.91-.67,.5-1.37,1.01-2.74,1.51-4.11,.13-.36,.28-.72,.39-1.09,.13-.45,.03-.62-.44-.6-.44,.02-.87,0-1.31,0-.61,0-.79,.13-1,.7-.31,.86-.63,1.72-.94,2.58-.32,.89-.65,1.78-.96,2.68-.12,.35-.03,.48,.33,.5,.27,.01,.55,0,.82,0,.23,0,.45,0,.68,0Zm2.28-5.98c-.13,.66-.42,1.23-.61,1.83-.2,.63-.45,1.24-.67,1.86-.22,.6-.45,1.2-.67,1.8h-1.65c.67-1.84,1.33-3.65,2-5.49h1.61Zm11.45,5.98c.45,0,.91,0,1.36,0,.6,0,.75-.11,.96-.67,.6-1.63,1.2-3.25,1.8-4.88,.06-.17,.12-.34,.14-.51,.04-.29-.04-.39-.34-.39-.57,0-1.13,0-1.7,0-.3,0-.51,.18-.65,.43-.03,.05-.04,.12-.06,.18-.62,1.69-1.24,3.38-1.85,5.07-.07,.19-.11,.39-.16,.56,.15,.21,.33,.21,.51,.21Zm3.65-5.97c-.03,.38-1.68,4.97-1.98,5.51-.45,0-.91,0-1.38,0-.06,0-.12-.03-.2-.05,.67-1.83,1.32-3.63,1.99-5.46h1.58Zm-28.59,5.49c0-1.13,0-2.26,0-3.39,0-.06,0-.13,0-.19-.03-.23-.15-.36-.38-.37-.18,0-.35,.03-.53,.04-.3,.03-.6,.06-.9,.09-.28-.27-.6-.09-.9-.11v4.1c.29,.01,.56,.04,.84-.02v-1.13c0-.37-.01-.74,0-1.11,.01-.36-.06-.73,.06-1.1,.32,.02,.63-.07,.95,.05v3.3h.83c.01-.07,.03-.12,.03-.16Zm17.35-3.54c-.42,1.16-.85,2.33-1.27,3.49-.14,.39-.06,.52,.33,.53,.53,.01,1.07,0,1.6,0,.32,0,.55-.18,.68-.46,.09-.19,.14-.39,.22-.59,.63-1.72,1.26-3.44,1.89-5.16,.02-.07,.02-.14,.04-.24h-.48l-2.19,5.99c-.54,0-1.05,.02-1.6-.02,.73-2.01,1.44-3.96,2.17-5.96l-.51-.03c-.31,.85-.59,1.65-.88,2.45Zm-27.73,.27h.89l.1,.69c.26-.04,.5,.05,.76-.07,0-.31,0-.61,0-.92-.01-.31-.13-.43-.44-.47-.13-.01-.26,0-.39,0-.44,0-.87-.01-1.31,0-.38,.01-.5,.14-.5,.5,0,1.08,0,2.16,0,3.24,0,.32,.12,.46,.43,.47,.6,.02,1.2,.02,1.79,0,.29-.01,.41-.15,.42-.43,.01-.35,0-.7,0-1.1-.29,.02-.54-.06-.77,.05-.08,.25,.05,.51-.14,.72h-.84c-.12-.45-.12-2.32,0-2.69Zm46.14-2.24s.08,.04,.14,.07l-.48,1.38,.51-.03c.15-.41,.29-.78,.43-1.16,.03-.09,.07-.18,.09-.27,.07-.33-.02-.45-.36-.46-.47,0-.94,0-1.41,0-.38,0-.64,.18-.77,.54-.12,.33-.23,.67-.36,.99-.14,.34-.12,.65,.05,.97,.26,.52,.51,1.04,.74,1.57,.07,.15,.13,.36,.08,.5-.14,.47-.33,.93-.51,1.41-.25,0-.48,0-.7,0-.24-.01-.48,.05-.73-.06l.52-1.5c-.25,0-.46-.11-.56,.15-.18,.46-.36,.93-.5,1.41-.1,.32,.02,.46,.35,.46,.47,0,.94,0,1.41,0,.38,0,.64-.15,.77-.53,.15-.43,.29-.85,.46-1.27,.13-.31,.1-.58-.05-.88-.28-.56-.54-1.13-.81-1.7-.05-.11-.13-.21-.07-.36,.16-.4,.3-.81,.47-1.26,.46,0,.88,0,1.3,0Zm-29.57,4.27c-.15,.41-.32,.81-.45,1.22-.11,.35,0,.49,.35,.5,.47,0,.94,0,1.41,0,.38,0,.64-.18,.76-.54,.14-.41,.28-.82,.45-1.22,.14-.34,.1-.64-.07-.97-.32-.63-.61-1.27-.89-1.88l.51-1.37h1.45l-.49,1.41h.5c.09-.24,.19-.48,.28-.72,.08-.23,.18-.45,.24-.68,.1-.35,0-.49-.36-.49-.47,0-.94,0-1.41,0-.35,0-.62,.16-.74,.51-.13,.36-.26,.73-.4,1.08-.12,.31-.09,.59,.05,.88,.27,.53,.52,1.07,.76,1.62,.07,.15,.12,.36,.08,.51-.14,.47-.33,.93-.51,1.4-.26,0-.49,0-.71,0-.23-.01-.47,.05-.71-.07l.51-1.46q-.49-.05-.6,.27Zm-36.09,1.43c.61-.02,.94-.32,.95-.92,.02-.87,.01-1.74,0-2.61,0-.4-.21-.55-.6-.49-.46,.08-.91,.14-1.37,.05-.09-.02-.18,0-.27,.01-.09,.62-.08,5.3,.03,5.44l.42-.05v-1.44c.3,0,.57,0,.84,0Zm.47-3.14c0,.65,0,1.29,0,1.94,0,.14-.03,.29-.07,.42-.06,.2-.2,.32-.43,.32-.26,0-.51,0-.78,0-.02-.09-.05-.15-.05-.21,0-.84,0-1.68,0-2.52,0-.33,.04-.37,.36-.38,.29-.01,.58,0,.93,0,.02,.18,.04,.3,.04,.43Zm13.58-.36c0-.39-.14-.53-.52-.54-.42-.01-.84-.01-1.26,0-.36,0-.51,.14-.52,.49-.01,1.01-.01,2.03,0,3.05,0,.35,.15,.48,.51,.49,.39,.01,.77,0,1.16,0,.49,0,.61-.13,.62-.64,0-.45,0-.9,0-1.35,0-.5,0-1,0-1.5Zm-.55-.07c.09,.36,.11,2.39,.03,3.07-.19,.09-.4,.04-.6,.04-.21,0-.42,0-.62,0-.09-.37-.11-2.41-.03-3.11h1.22Zm-9.54,3.34c0-1.1,0-2.19,0-3.29,0-.06,0-.13-.02-.19-.04-.17-.16-.3-.33-.31-.5-.02-1-.03-1.5,0-.25,.01-.35,.16-.36,.42,0,.19,0,.39,0,.58,0,.03,.03,.05,.06,.11l.37-.02c.06-.25-.04-.49,.1-.72,.31,0,.61,0,.92,0,.17,0,.28,.06,.28,.25,0,.35,0,.7,0,1.1-.45,0-.85,0-1.25,0-.46,0-.56,.11-.57,.57,0,.39,0,.77,0,1.16,0,.46,.2,.61,.64,.54,.44-.07,.88-.15,1.33-.05,.09,.02,.19,0,.28-.01,.02-.06,.04-.1,.04-.15Zm-1.8-.25v-1.36c.31-.11,.65-.12,1.29-.05,.09,.22,.04,.47,.05,.7,0,.22,0,.44,0,.71h-1.34Zm48.07,.75h.51l2.18-5.97h.97c.05-.1,.09-.16,.12-.24,.02-.06,.02-.12,.03-.21h-2.49l-.14,.43h.99c-.74,2.03-1.45,3.99-2.17,5.98Zm-7.28,0h1.95l.14-.45h-1.48c.26-.72,.5-1.38,.75-2.04,.24-.65,.48-1.29,.71-1.94,.23-.66,.51-1.29,.7-1.99h-.46c-.37,.79-2.25,6.07-2.29,6.43Zm-26.46-6.31v-.42c-.28,0-.54-.01-.79,0-.27,.02-.41,.15-.44,.42-.02,.13,0,.26,0,.39,0,.51,0,1.03,0,1.56l-.4,.09v.37l.4,.09v3.51h.47c.02-1.19,0-2.36,.01-3.53l.68-.06-.04-.4-.62-.05v-1.91l.73-.06Zm9.89,5.99v-4.09h-.83v4.15c.31-.06,.58,.04,.83-.07Zm-18.68-3.97v.42l.47,.04v1.95c0,.32,0,.65,0,.97,0,.53,.12,.64,.66,.64,.17,0,.35,0,.53,0v-.43l-.68-.05c-.08-.71-.05-2.73,.03-3.08l.65-.04v-.41l-.73-.05v-1.23l-.49,.03v1.21l-.45,.04Zm44.81,4.3h.52c.78-2.14,1.56-4.28,2.34-6.43h-.52l-2.34,6.43Zm-47.52-.3h.44c.05-1.17-.02-2.32,.04-3.47,.38-.11,.71-.1,1.08-.03l.05,.77h.46c0-.26,0-.49,0-.71,0-.03,0-.06,0-.1-.03-.36-.22-.51-.58-.46-.27,.04-.54,.09-.81,.1-.22,0-.43-.03-.68-.05v3.95Zm21.39-5.73h-.85c.03,.31-.05,.61,.04,.89h.81v-.89Z"></path></g></g></g></svg>